<svg width="293" height="211" viewBox="0 0 293 211" fill="none" xmlns="http://www.w3.org/2000/svg">
<path d="M203.825 0.235775L146.263 79.8201L88.7969 0.235775H0.146957V62.7701H22.1063V148.095H0.146957V210.626H113.188V148.095H89.7657V99.1263L145.959 176.395L202.856 99.0607V148.095H179.434V210.626H292.475V148.095H270.516V62.7701H292.475V0.235775H203.825Z" fill="white"/>
<path d="M287.763 58.0483V4.92941H206.225L146.253 87.842L86.3876 4.92941H4.85008V58.0483H26.8095V152.789H4.85008V205.908H108.478V152.789H85.0532V84.6419L145.975 168.411L207.559 84.7075V152.789H184.138V205.908H287.763V152.789H265.803V58.0483H287.763Z" fill="white"/>
</svg>
